<?xml version="1.0" encoding="utf-8"?>
<svg xmlns="http://www.w3.org/2000/svg" fill="none" height="100%" overflow="visible" preserveAspectRatio="none" style="display: block;" viewBox="0 0 116 32" width="100%">
<g id="Icon">
<g id="Icon 03">
<g id="twitter">
<path d="M23.3333 10C22.6949 10.4503 21.9881 10.7947 21.24 11.02C20.8385 10.5583 20.3049 10.2311 19.7114 10.0826C19.1178 9.93411 18.493 9.97146 17.9214 10.1896C17.3498 10.4078 16.859 10.7963 16.5153 11.3025C16.1717 11.8087 15.9918 12.4082 16 13.02V13.6867C14.8284 13.717 13.6675 13.4572 12.6207 12.9303C11.5738 12.4034 10.6735 11.6258 10 10.6667C10 10.6667 7.33333 16.6667 13.3333 19.3333C11.9604 20.2653 10.3248 20.7326 8.66667 20.6667C14.6667 24 22 20.6667 22 13C21.9994 12.8143 21.9815 12.6291 21.9467 12.4467C22.6271 11.7757 23.1072 10.9285 23.3333 10Z" fill="var(--fill-0, white)" id="Vector"/>
</g>
</g>
<g id="Icon 02">
<g clip-path="url(#clip0_0_404)" id="instagram">
<path d="M61.3333 9.33333H54.6667C52.8257 9.33333 51.3333 10.8257 51.3333 12.6667V19.3333C51.3333 21.1743 52.8257 22.6667 54.6667 22.6667H61.3333C63.1743 22.6667 64.6667 21.1743 64.6667 19.3333V12.6667C64.6667 10.8257 63.1743 9.33333 61.3333 9.33333Z" id="Vector_2" stroke="var(--stroke-0, white)" stroke-linecap="round" stroke-linejoin="round" stroke-width="1.5"/>
<path d="M60.6667 15.58C60.7489 16.1348 60.6542 16.7015 60.3958 17.1993C60.1375 17.6972 59.7288 18.1009 59.2278 18.3531C58.7267 18.6053 58.159 18.6931 57.6052 18.604C57.0514 18.5148 56.5398 18.2534 56.1432 17.8568C55.7466 17.4602 55.4852 16.9486 55.396 16.3948C55.3069 15.841 55.3947 15.2733 55.6469 14.7722C55.8991 14.2712 56.3028 13.8625 56.8007 13.6042C57.2985 13.3458 57.8652 13.2511 58.42 13.3333C58.9859 13.4173 59.5099 13.681 59.9145 14.0855C60.319 14.4901 60.5827 15.014 60.6667 15.58Z" id="Vector_3" stroke="var(--stroke-0, white)" stroke-linecap="round" stroke-linejoin="round" stroke-width="1.5"/>
<path d="M61.6667 12.3333H61.6767" id="Vector_4" stroke="var(--stroke-0, white)" stroke-linecap="round" stroke-linejoin="round" stroke-width="2"/>
</g>
</g>
<g id="Icon 01">
<g clip-path="url(#clip1_0_404)" id="youtube">
<path d="M107.027 12.28C106.947 11.9636 106.786 11.6737 106.559 11.4396C106.332 11.2055 106.047 11.0355 105.733 10.9467C104.587 10.6667 100 10.6667 100 10.6667C100 10.6667 95.4133 10.6667 94.2667 10.9733C93.9528 11.0621 93.668 11.2322 93.4409 11.4663C93.2138 11.7004 93.0525 11.9903 92.9733 12.3067C92.7635 13.4704 92.6608 14.6509 92.6667 15.8333C92.6592 17.0247 92.7618 18.2142 92.9733 19.3867C93.0606 19.6932 93.2255 19.9721 93.4521 20.1963C93.6787 20.4205 93.9592 20.5825 94.2667 20.6667C95.4133 20.9733 100 20.9733 100 20.9733C100 20.9733 104.587 20.9733 105.733 20.6667C106.047 20.5779 106.332 20.4078 106.559 20.1737C106.786 19.9396 106.947 19.6497 107.027 19.3333C107.235 18.1784 107.338 17.0069 107.333 15.8333C107.341 14.642 107.238 13.4525 107.027 12.28Z" fill="var(--fill-0, white)" id="Vector_5" stroke="var(--stroke-0, white)" stroke-linecap="round" stroke-linejoin="round" stroke-width="2"/>
<path d="M98.5 18.0133L102.333 15.8333L98.5 13.6533V18.0133Z" fill="var(--fill-0, #0F0F0F)" id="Vector_6" stroke="var(--stroke-0, #0F0F0F)" stroke-linecap="round" stroke-linejoin="round" stroke-width="2"/>
</g>
</g>
</g>
<defs>
<clipPath id="clip0_0_404">
<rect fill="white" height="16" transform="translate(50 8)" width="16"/>
</clipPath>
<clipPath id="clip1_0_404">
<rect fill="white" height="16" transform="translate(92 8)" width="16"/>
</clipPath>
</defs>
</svg>